# xmcd CD database file
#
# Track frame offsets:
#	150
#	36167
#	59282
#	74255
#	97415
#	112107
#	138887
#	151590
#	172137
#	194185
#	207087
#	238070
#
# Disc length: 3646 seconds
#
# Revision: 0
# Processed by: cddbd v1.5PL3 Copyright (c) Steve Scherf et al.
# Submitted via: CDex 1.51
#
DISCID=b50e3c0c
DTITLE=Astor Pianzzolla - adios nonino
DYEAR=1900
DGENRE=Jazz
TTITLE0=Adios Nonino
TTITLE1=Otono Porteno
TTITLE2=Michelangelo 70
TTITLE3=Contramilonga A La Funerala
TTITLE4=Fuga Y Misterio
TTITLE5=Coral
TTITLE6=Fugata
TTITLE7=Tocata Rea
TTITLE8=Tangata Del Alba
TTITLE9=Allegro Tangabile
TTITLE10=Soledad
TTITLE11=Final
EXTD=
EXTT0=
EXTT1=
EXTT2=
EXTT3=
EXTT4=
EXTT5=
EXTT6=
EXTT7=
EXTT8=
EXTT9=
EXTT10=
EXTT11=
PLAYORDER=
